<svg viewBox="0 0 200 200" xmlns="http://www.w3.org/2000/svg">
	<path 
		fill="#000" 
		d="M31.4,-39.2C42,-42.1,52.7,-35.5,60.3,-25.6C68,-15.6,72.6,-2.3,62.1,2.6C51.5,7.5,25.9,3.8,14.2,6.1C2.6,8.4,4.9,16.6,3.8,20.4C2.7,24.1,-2,23.4,-13.1,27.8C-24.2,32.2,-41.8,41.9,-52.2,39.7C-62.5,37.6,-65.6,23.7,-70.4,8.4C-75.3,-6.9,-81.9,-23.6,-72.7,-28.9C-63.6,-34.2,-38.8,-28,-24.1,-23.2C-9.3,-18.5,-4.7,-15.3,2.9,-19.8C10.4,-24.2,20.8,-36.4,31.4,-39.2Z" 
		data-path-to="M33,-61.3C42.1,-52,48.2,-41.7,54.7,-31.3C61.2,-20.9,68.2,-10.4,66.7,-0.9C65.1,8.6,55,17.3,47.4,25.7C39.7,34.2,34.5,42.5,27,47.7C19.5,52.8,9.8,54.9,-2.9,59.9C-15.6,64.9,-31.2,72.9,-38.8,67.9C-46.4,62.8,-46.1,44.6,-45.4,31.1C-44.7,17.6,-43.6,8.8,-50.1,-3.7C-56.5,-16.2,-70.4,-32.5,-66.1,-37.2C-61.7,-42,-39.1,-35.3,-25.1,-41.6C-11,-48,-5.5,-67.5,3.3,-73.1C12,-78.7,24,-70.5,33,-61.3Z"
		transform="translate(100 100)" 
	/>
</svg>